<svg viewBox="0 0 16 16">
  <path d="M14.625 3.38a3 3 0 0 0-4.25 0l.71.71a2.004 2.004 0 1 1 2.835 2.835l-4 4a2.003 2.003 0 0 1-2.835-2.83l.705-.71-.705-.71-.71.71a3 3 0 0 0 0 4.25A3 3 0 0 0 8.5 12.5a3 3 0 0 0 2.135-.88l4-4a3 3 0 0 0-.01-4.24Z"/>
  <path d="M2.095 12.41a2 2 0 0 1 0-2.835l4-4a2 2 0 0 1 2.835 0A1.97 1.97 0 0 1 9.5 7a2 2 0 0 1-.585 1.425L7.855 9.5l.71.71 1.06-1.06A3.009 3.009 0 0 0 5.37 4.895l-4 4a3 3 0 0 0 0 4.255A3 3 0 0 0 3.5 14a3.04 3.04 0 0 0 2.14-.88l-.71-.71a2 2 0 0 1-2.835 0Z"/>
</svg>
