<svg viewBox="0 0 24 24">
  <path fill-rule="evenodd" d="M20.214 16.946a1.5 1.5 0 0 1-.549 2.05l-4.33 2.5a1.5 1.5 0 0 1-2.05-.55l-2.75-4.763-4.762 2.75a1.5 1.5 0 0 1-2.05-.549l-2.5-4.33a1.5 1.5 0 0 1 .55-2.05l16.454-9.5a1.5 1.5 0 0 1 2.05.55l2.5 4.33a1.5 1.5 0 0 1-.55 2.049l-4.763 2.75 2.75 4.763ZM2.273 12.871l4.33-2.5a.5.5 0 0 1 .683.183l2.5 4.33a.5.5 0 0 1-.183.683l-4.33 2.5a.5.5 0 0 1-.683-.183l-2.5-4.33a.5.5 0 0 1 .183-.683Zm8.379 1.513-2.5-4.33a.5.5 0 0 1 .183-.683l4.33-2.5a.5.5 0 0 1 .683.183l2.5 4.33a.5.5 0 0 1-.183.683l-4.33 2.5a.5.5 0 0 1-.683-.183Zm6.196-1.268a.5.5 0 0 0-.683-.183l-4.33 2.5a.5.5 0 0 0-.183.683l2.5 4.33a.5.5 0 0 0 .683.183l4.33-2.5a.5.5 0 0 0 .183-.683l-2.5-4.33Zm-.134-2.232a.5.5 0 0 0 .683.183l4.33-2.5a.5.5 0 0 0 .183-.683l-2.5-4.33a.5.5 0 0 0-.683-.183l-4.33 2.5a.5.5 0 0 0-.183.683l2.5 4.33Z" clip-rule="evenodd"/>
</svg>
